<?xml version="1.0" encoding="UTF-8"?>
<svg width="25px" height="32px" viewBox="0 0 25 32" version="1.1" xmlns="http://www.w3.org/2000/svg" xmlns:xlink="http://www.w3.org/1999/xlink">
    <!-- Generator: Sketch 43.1 (39012) - http://www.bohemiancoding.com/sketch -->
    <title>Group 2</title>
    <desc>Created with Sketch.</desc>
    <defs></defs>
    <g id="Page-1" stroke="none" stroke-width="1" fill="none" fill-rule="evenodd" stroke-linejoin="round">
        <g id="02-Inputs" transform="translate(-496.000000, -440.000000)" stroke="#1C85E8" stroke-width="1.39999998">
            <g id="Group-17" transform="translate(270.000000, 375.000000)">
                <g id="Group-12" transform="translate(192.000000, 66.000000)">
                    <g id="Group-2" transform="translate(35.000000, 0.000000)">
                        <path d="M22.4493243,3.95 L0.0506756757,3.95 L0.0506756757,2.65 C0.0506756757,1.2148 1.23121622,0.05 2.68581081,0.05 L19.8141892,0.05 C21.2687838,0.05 22.4493243,1.2148 22.4493243,2.65 L22.4493243,3.95 L22.4493243,3.95 Z" id="Stroke-10362"></path>
                        <path d="M21.1317568,16.95 L1.36824324,16.95 L1.36824324,15.65 C1.36824324,14.2148 2.54878378,13.05 4.00337838,13.05 L18.4966216,13.05 C19.9512162,13.05 21.1317568,14.2148 21.1317568,15.65 L21.1317568,16.95 L21.1317568,16.95 Z" id="Stroke-10363"></path>
                        <path d="M2.02702703,3.95 L2.68581081,13.05" id="Stroke-10364"></path>
                        <path d="M20.472973,3.95 L19.8141892,13.05" id="Stroke-10365"></path>
                        <path d="M20.472973,16.95 L2.02702703,16.95 C2.02702703,20.0622 4.24712838,22.6557 7.2077027,23.2927 L5.97972973,29.95 L16.5202703,29.95 L15.2922973,23.2927 C18.2528716,22.6557 20.472973,20.0622 20.472973,16.95 L20.472973,16.95 Z" id="Stroke-10366"></path>
                    </g>
                </g>
            </g>
        </g>
    </g>
</svg>