<?xml version="1.0" encoding="UTF-8"?>
<svg width="30px" height="30px" viewBox="0 0 30 30" version="1.1" xmlns="http://www.w3.org/2000/svg" xmlns:xlink="http://www.w3.org/1999/xlink">
    <!-- Generator: Sketch 43.1 (39012) - http://www.bohemiancoding.com/sketch -->
    <title>Group 4</title>
    <desc>Created with Sketch.</desc>
    <defs></defs>
    <g id="Page-1" stroke="none" stroke-width="1" fill="none" fill-rule="evenodd">
        <g id="02-Inputs" transform="translate(-303.000000, -443.000000)" fill="#1C85E8">
            <g id="Group-17" transform="translate(270.000000, 375.000000)">
                <g id="Group-11" transform="translate(0.000000, 68.000000)">
                    <g id="Group-4" transform="translate(33.000000, 0.000000)">
                        <path d="M28.7520799,26.2502496 C28.7520799,26.9400998 28.191015,27.5011647 27.5011647,27.5011647 L2.49883527,27.5011647 C1.80998336,27.5011647 1.24792013,26.9400998 1.24792013,26.2502496 L1.24792013,21.2485857 L28.7520799,21.2485857 L28.7520799,26.2502496 Z M2.81930116,11.2482529 L27.1816972,11.2482529 L28.6402662,20.0006656 L1.36073211,20.0006656 L2.81930116,11.2482529 Z M4.99966722,1.24792013 L25.0003328,1.24792013 C25.6911814,1.24792013 26.2522463,1.80898502 26.2522463,2.49883527 L26.2522463,4.99966722 L24.8855241,4.99966722 L24.7866889,4.28785358 C24.7437604,3.97936772 24.4801997,3.74975042 24.1687188,3.74975042 L17.0585691,3.74975042 C16.8908486,3.74975042 16.7301165,3.81763727 16.6133111,3.9374376 C16.4955075,4.05723794 16.431614,4.21996672 16.434609,4.38768719 L16.4505824,5.14242928 L13.8638935,5.14242928 L13.8798669,4.38768719 C13.8818636,4.21996672 13.8189684,4.05723794 13.7011647,3.9374376 C13.5843594,3.81763727 13.4236273,3.74975042 13.2559068,3.74975042 L6.14575707,3.74975042 C5.83527454,3.74975042 5.57071547,3.97936772 5.52778702,4.28785358 L5.42995008,4.99966722 L3.74875208,4.99966722 L3.74875208,2.49883527 C3.74875208,1.80898502 4.31081531,1.24792013 4.99966722,1.24792013 L4.99966722,1.24792013 Z M17.6955075,4.99767055 L23.625624,4.99767055 L23.9730449,7.50049917 L17.7484193,7.50049917 L17.6955075,4.99767055 Z M6.34143095,7.50049917 L6.68885191,4.99767055 L12.6189684,4.99767055 L12.5660566,7.50049917 L6.34143095,7.50049917 Z M3.65291181,6.24758735 L5.2562396,6.24758735 L5.00665557,8.03860233 C4.98169717,8.21730449 5.03560732,8.39800333 5.15341098,8.53377704 C5.27221298,8.67054908 5.44392679,8.7484193 5.62462562,8.7484193 L13.1770383,8.7484193 C13.5164725,8.7484193 13.7950083,8.47687188 13.8009983,8.1374376 L13.8379368,6.39034942 L16.4765391,6.39034942 L16.5124792,8.1374376 C16.5194676,8.47687188 16.797005,8.7484193 17.1364393,8.7484193 L24.6898502,8.7484193 C24.8695507,8.7484193 25.0412646,8.67054908 25.1600666,8.53377704 C25.2788686,8.39800333 25.3317804,8.21730449 25.3078203,8.03860233 L25.0592346,6.24758735 L26.3480865,6.24758735 L26.9740433,10.0003328 L3.02695507,10.0003328 L3.65291181,6.24758735 Z M29.98802,20.5697171 C29.9870216,20.5537438 29.99401,20.5377704 29.991015,20.5227953 L27.5001664,5.57470882 L27.5001664,2.49883527 C27.5001664,1.12113145 26.3790349,0 25.0003328,0 L4.99966722,0 C3.62196339,0 2.50083195,1.12113145 2.50083195,2.49883527 L2.50083195,5.57470882 L0.00898502496,20.5227953 C0.00599001664,20.5377704 0.0129783694,20.5537438 0.0109816972,20.5697171 C0.00998336106,20.5886855 0,20.6056572 0,20.6246256 L0,26.2502496 C0,27.6279534 1.12113145,28.7490849 2.49883527,28.7490849 L3.75074875,28.7490849 L3.75074875,29.3760399 C3.75074875,29.7204659 4.03028286,30 4.37470882,30 C4.71913478,30 4.99866889,29.7204659 4.99866889,29.3760399 L4.99866889,28.7490849 L25.0023295,28.7490849 L25.0023295,29.3760399 C25.0023295,29.7204659 25.2818636,30 25.6262895,30 C25.9707155,30 26.2502496,29.7204659 26.2502496,29.3760399 L26.2502496,28.7490849 L27.5011647,28.7490849 C28.8788686,28.7490849 30,27.6279534 30,26.2502496 L30,20.6246256 C30,20.6056572 29.9900166,20.5886855 29.98802,20.5697171 L29.98802,20.5697171 Z" id="Fill-1"></path>
                    </g>
                </g>
            </g>
        </g>
    </g>
</svg>