<?xml version="1.0" encoding="UTF-8"?>
<svg width="36px" height="30px" viewBox="0 0 36 30" version="1.1" xmlns="http://www.w3.org/2000/svg" xmlns:xlink="http://www.w3.org/1999/xlink">
    <!-- Generator: Sketch 43.1 (39012) - http://www.bohemiancoding.com/sketch -->
    <title>Group 5</title>
    <desc>Created with Sketch.</desc>
    <defs></defs>
    <g id="Page-1" stroke="none" stroke-width="1" fill="none" fill-rule="evenodd">
        <g id="02-Inputs" transform="translate(-493.000000, -603.000000)" fill="#1C85E8">
            <g id="Group-17" transform="translate(270.000000, 375.000000)">
                <g id="Group-9" transform="translate(192.000000, 228.000000)">
                    <g id="Group-5" transform="translate(31.000000, 0.000000)">
                        <path d="M31.5155315,28.2755017 L30.0260647,28.2755017 L30.0260647,14.1377508 C30.0260647,13.727012 29.6924242,13.3936587 29.2813314,13.3936587 L6.93933036,13.3936587 C6.52823754,13.3936587 6.194597,13.727012 6.194597,14.1377508 L6.194597,28.2755017 L4.70513026,28.2755017 L4.70513026,11.9054744 L31.5155315,11.9054744 L31.5155315,28.2755017 Z M7.68406373,28.2755017 L28.536598,28.2755017 L28.536598,14.881843 L7.68406373,14.881843 L7.68406373,28.2755017 Z M1.72619679,8.67313809 L18.1103309,1.55515259 L34.4944649,8.67313809 L34.4944649,10.4172901 L32.2602648,10.4172901 L3.96039689,10.4172901 L1.72619679,10.4172901 L1.72619679,8.67313809 Z M35.2391983,11.9054744 C35.6502911,11.9054744 35.9839317,11.5721211 35.9839317,11.1613822 L35.9839317,8.18501364 C35.9839317,7.88886497 35.8081746,7.62099179 35.5356022,7.50342523 L18.4067347,0.0625037405 C18.2175725,-0.0208345802 18.0030893,-0.0208345802 17.813927,0.0625037405 L0.685059547,7.50342523 C0.412487134,7.62099179 0.23673006,7.88886497 0.23673006,8.18501364 L0.23673006,11.1613822 C0.23673006,11.5721211 0.570370608,11.9054744 0.981463427,11.9054744 L3.21566353,11.9054744 L3.21566353,28.2755017 L0.981463427,28.2755017 C0.570370608,28.2755017 0.23673006,28.608855 0.23673006,29.0195938 C0.23673006,29.4303327 0.570370608,29.763686 0.981463427,29.763686 L3.96039689,29.763686 L6.93933036,29.763686 L29.2813314,29.763686 L32.2602648,29.763686 L35.2391983,29.763686 C35.6502911,29.763686 35.9839317,29.4303327 35.9839317,29.0195938 C35.9839317,28.608855 35.6502911,28.2755017 35.2391983,28.2755017 L33.0049982,28.2755017 L33.0049982,11.9054744 L35.2391983,11.9054744 Z" id="Fill-1"></path>
                        <path d="M26.5009935,18.2550607 L10.1168594,18.2550607 C9.70576658,18.2550607 9.37212603,18.588414 9.37212603,18.9991529 C9.37212603,19.4098917 9.70576658,19.743245 10.1168594,19.743245 L26.5009935,19.743245 C26.9120863,19.743245 27.2457268,19.4098917 27.2457268,18.9991529 C27.2457268,18.588414 26.9120863,18.2550607 26.5009935,18.2550607" id="Fill-3"></path>
                        <path d="M26.5009935,21.2975709 L10.1168594,21.2975709 C9.70576658,21.2975709 9.37212603,21.6309241 9.37212603,22.041663 C9.37212603,22.4524019 9.70576658,22.7857551 10.1168594,22.7857551 L26.5009935,22.7857551 C26.9120863,22.7857551 27.2457268,22.4524019 27.2457268,22.041663 C27.2457268,21.6309241 26.9120863,21.2975709 26.5009935,21.2975709" id="Fill-5"></path>
                        <path d="M26.5009935,24.4797571 L10.1168594,24.4797571 C9.70576658,24.4797571 9.37212603,24.8131104 9.37212603,25.2238492 C9.37212603,25.6345881 9.70576658,25.9679414 10.1168594,25.9679414 L26.5009935,25.9679414 C26.9120863,25.9679414 27.2457268,25.6345881 27.2457268,25.2238492 C27.2457268,24.8131104 26.9120863,24.4797571 26.5009935,24.4797571" id="Fill-7"></path>
                    </g>
                </g>
            </g>
        </g>
    </g>
</svg>