<?xml version="1.0" encoding="UTF-8"?>
<svg width="30px" height="30px" viewBox="0 0 30 30" version="1.1" xmlns="http://www.w3.org/2000/svg" xmlns:xlink="http://www.w3.org/1999/xlink">
    <!-- Generator: Sketch 43.1 (39012) - http://www.bohemiancoding.com/sketch -->
    <title>Group 8</title>
    <desc>Created with Sketch.</desc>
    <defs>
        <polygon id="path-1" points="15.4230559 0.0240384615 0.344123487 0.0240384615 0.344123487 15.0049808 15.4230559 15.0049808 15.4230559 0.0240384615"></polygon>
    </defs>
    <g id="Page-1" stroke="none" stroke-width="1" fill="none" fill-rule="evenodd">
        <g id="02-Inputs" transform="translate(-677.000000, -441.000000)">
            <g id="Group-17" transform="translate(270.000000, 375.000000)">
                <g id="Group-13" transform="translate(372.000000, 66.000000)">
                    <g id="Group-8" transform="translate(35.000000, 0.000000)">
                        <g id="Group-3" transform="translate(13.064516, 0.000000)">
                            <mask id="mask-2" fill="white">
                                <use xlink:href="#path-1"></use>
                            </mask>
                            <g id="Clip-2"></g>
                            <path d="M11.6337774,1.61988462 L13.8171,3.78921154 L12.2586484,5.33767308 L10.0753258,3.16834615 L11.6337774,1.61988462 Z M9.13322903,4.10334615 L11.3165516,6.27267308 L5.38293871,12.16825 L3.19961613,9.99786538 L9.13322903,4.10334615 Z M2.58858387,11.26075 L4.11297097,12.7753654 L1.97861613,13.3814231 L2.58858387,11.26075 Z M1.6337129,9.79267308 C1.63158387,9.80113462 1.62200323,9.80748077 1.61987419,9.817 L0.370132258,14.162 C0.303067742,14.3936346 0.368003226,14.6421923 0.538325806,14.8114231 C0.665003226,14.9372885 0.835325806,15.0049808 1.00990645,15.0049808 C1.07058387,15.0049808 1.13232581,14.9965192 1.19193871,14.9795962 L5.56603548,13.7389231 C5.57561613,13.73575 5.58200323,13.7262308 5.59051935,13.7230577 C5.68632581,13.6923846 5.77787419,13.6458462 5.85345484,13.5696923 L12.7281,6.74123077 C12.7281,6.74017308 12.7281,6.74017308 12.7291645,6.74017308 L12.730229,6.73911538 L15.2286484,4.25671154 C15.4873258,3.99863462 15.4883903,3.58084615 15.2286484,3.32171154 L12.1042935,0.217384615 C11.9797452,0.0936346154 11.8104871,0.0238269231 11.6337774,0.0238269231 C11.4570677,0.0238269231 11.2888742,0.0936346154 11.1632613,0.217384615 L1.78806774,9.53036538 C1.7124871,9.60651923 1.66564839,9.69748077 1.6337129,9.79267308 L1.6337129,9.79267308 Z" id="Fill-1" fill="#1C85E8" mask="url(#mask-2)"></path>
                        </g>
                        <path d="M29.3362597,6.44230769 L27.466105,6.44230769 C27.1007823,6.44230769 26.8023647,6.73705517 26.8023647,7.10022617 C26.8023647,7.46339718 27.1007823,7.75814465 27.466105,7.75814465 L28.6725194,7.75814465 L28.6725194,28.684163 L1.32748062,28.684163 L1.32748062,7.75814465 L14.999469,7.75814465 C15.3658537,7.75814465 15.6632093,7.46339718 15.6632093,7.10022617 C15.6632093,6.73705517 15.3658537,6.44230769 14.999469,6.44230769 L0.663740309,6.44230769 C0.297355659,6.44230769 0,6.73705517 0,7.10022617 L0,29.3420815 C0,29.7063052 0.297355659,30 0.663740309,30 L29.3362597,30 C29.7026443,30 30,29.7063052 30,29.3420815 L30,7.10022617 C30,6.73705517 29.7026443,6.44230769 29.3362597,6.44230769" id="Fill-4" fill="#1C85E8"></path>
                        <path d="M5.69638449,24.8215978 L9.39072917,24.8215978 L9.39072917,21.1499215 L5.69638449,21.1499215 L5.69638449,24.8215978 Z M17.0249933,22.3191026 L21.9793829,22.3191026 L21.9793829,21.1488557 L17.0249933,21.1488557 L17.0249933,22.3191026 Z M17.0249933,24.8215978 L21.9793829,24.8215978 L21.9793829,23.6513509 L17.0249933,23.6513509 L17.0249933,24.8215978 Z M10.6904522,11.1399406 C11.0593505,11.1399406 11.3606889,10.841517 11.3606889,10.4738165 C11.3606889,10.1061159 11.0593505,9.80769231 10.6904522,9.80769231 L5.02507541,9.80769231 C4.65617713,9.80769231 4.35483871,10.1061159 4.35483871,10.4738165 L4.35483871,25.487722 C4.35483871,25.8554225 4.65617713,26.1538462 5.02507541,26.1538462 L16.3547566,26.1538462 L22.6496196,26.1538462 L26.4265375,26.1538462 C26.7954358,26.1538462 27.0967742,25.8554225 27.0967742,25.487722 L27.0967742,11.0994403 C27.0967742,10.7317397 26.7954358,10.4333161 26.4265375,10.4333161 C26.0565668,10.4333161 25.7563008,10.7317397 25.7563008,11.0994403 L25.7563008,14.8126828 L20.7611607,14.8126828 C20.3922624,14.8126828 20.090924,15.1111064 20.090924,15.4788069 C20.090924,15.8465074 20.3922624,16.1449311 20.7611607,16.1449311 L25.7563008,16.1449311 L25.7563008,17.315178 L20.7611607,17.315178 C20.3922624,17.315178 20.090924,17.6125358 20.090924,17.9813021 C20.090924,18.3490027 20.3922624,18.6474263 20.7611607,18.6474263 L25.7563008,18.6474263 L25.7563008,24.8215978 L23.3198563,24.8215978 L23.3198563,20.4827316 C23.3198563,20.115031 23.0195903,19.8166074 22.6496196,19.8166074 L16.3547566,19.8166074 C15.9847859,19.8166074 15.6845199,20.115031 15.6845199,20.4827316 L15.6845199,24.8215978 L10.7312026,24.8215978 L10.7312026,20.4827316 C10.7312026,20.115031 10.4309365,19.8166074 10.0609659,19.8166074 L5.69531211,19.8166074 L5.69531211,17.3961787 L10.6904522,17.3961787 C11.0593505,17.3961787 11.3606889,17.0977551 11.3606889,16.7300545 C11.3606889,16.362354 11.0593505,16.0639304 10.6904522,16.0639304 L5.69531211,16.0639304 L5.69531211,11.1399406 L10.6904522,11.1399406 Z" id="Fill-6" fill="#1C85E8"></path>
                    </g>
                </g>
            </g>
        </g>
    </g>
</svg>